<!DOCTYPE svg PUBLIC "-//W3C//DTD SVG 1.1//EN" "http://www.w3.org/Graphics/SVG/1.1/DTD/svg11.dtd">
<!-- Uploaded to: SVG Repo, www.svgrepo.com, Transformed by: SVG Repo Mixer Tools -->
<svg version="1.1" id="Layer_1" xmlns="http://www.w3.org/2000/svg" xmlns:xlink="http://www.w3.org/1999/xlink" viewBox="0 0 512 512" xml:space="preserve" width="800px" height="800px" fill="#000000">
<g id="SVGRepo_bgCarrier" stroke-width="0"/>
<g id="SVGRepo_tracerCarrier" stroke-linecap="round" stroke-linejoin="round"/>
<g id="SVGRepo_iconCarrier"> <polygon style="fill:#1D71B8;" points="352.03,504.159 159.969,504.159 143.964,480.152 183.977,392.124 336.025,392.124 368.035,480.152 "/> <polygon style="fill:#A5C6E3;" points="328.022,392.124 183.977,392.124 215.987,320.101 215.987,144.046 296.012,144.046 296.012,320.101 "/> <polygon style="fill:#36A9E1;" points="280.007,392.124 183.977,392.124 215.987,320.101 215.987,144.046 247.997,144.046 247.997,320.101 "/> <g> <rect x="191.983" y="136.209" style="fill:#1D1D1B;" width="128.044" height="15.681"/> <path style="fill:#1D1D1B;" d="M373.103,470.558l-0.108-0.323l-69.142-159.761V160.05h-15.681v153.672l70.148,162.087 c1.499,4.791,0.68,9.858-2.266,13.945c-3.006,4.171-7.68,6.563-12.821,6.563H168.767c-5.141,0-9.815-2.392-12.821-6.563 c-2.946-4.088-3.766-9.154-2.266-13.945l70.148-162.087V287.93h16.167v-15.681h-16.167v-16.329H256v-15.681h-32.172v-16.329h16.167 v-15.681h-16.167v-16.329H256v-15.681h-32.172v-16.167h-15.681v150.424L139.14,469.925l-0.243,0.635 c-3.239,9.717-1.662,20.057,4.327,28.366c5.989,8.31,15.299,13.075,25.543,13.075h174.466c10.243,0,19.554-4.766,25.543-13.075 C374.764,490.615,376.341,480.275,373.103,470.558z"/> <rect x="216.153" y="104.031" style="fill:#1D1D1B;" width="15.681" height="24.007"/> <rect x="248.154" style="fill:#1D1D1B;" width="15.681" height="120.036"/> <rect x="216.153" y="48.016" style="fill:#1D1D1B;" width="15.681" height="40.009"/> <rect x="184.142" y="80.028" style="fill:#1D1D1B;" width="15.681" height="16.005"/> <rect x="280.165" y="24.007" style="fill:#1D1D1B;" width="15.681" height="48.016"/> <rect x="280.165" y="88.025" style="fill:#1D1D1B;" width="15.681" height="40.009"/> <rect x="312.176" y="80.028" style="fill:#1D1D1B;" width="15.681" height="16.005"/> <rect x="199.98" y="384.28" style="fill:#1D1D1B;" width="112.039" height="15.681"/> </g> <g> <rect x="247.997" y="416.291" style="fill:#FFFFFF;" width="32.01" height="15.681"/> <rect x="231.991" y="448.302" style="fill:#FFFFFF;" width="16.006" height="15.681"/> <rect x="280.008" y="464.307" style="fill:#FFFFFF;" width="40.009" height="15.681"/> <rect x="191.983" y="424.299" style="fill:#FFFFFF;" width="32.01" height="15.681"/> </g> </g>
</svg>