<!DOCTYPE svg PUBLIC "-//W3C//DTD SVG 1.1//EN" "http://www.w3.org/Graphics/SVG/1.1/DTD/svg11.dtd">
<!-- Uploaded to: SVG Repo, www.svgrepo.com, Transformed by: SVG Repo Mixer Tools -->
<svg version="1.1" id="Layer_1" xmlns="http://www.w3.org/2000/svg" xmlns:xlink="http://www.w3.org/1999/xlink" viewBox="0 0 392.598 392.598" xml:space="preserve" width="64px" height="64px" fill="#000000">
<g id="SVGRepo_bgCarrier" stroke-width="0"/>
<g id="SVGRepo_tracerCarrier" stroke-linecap="round" stroke-linejoin="round"/>
<g id="SVGRepo_iconCarrier"> <rect x="189.091" y="85.721" style="fill:#FFFFFF;" width="181.657" height="206.222"/> <path style="fill:#6DA8D6;" d="M289.293,347.927l-9.891-34.133H226.78l-9.891,34.133c-1.422,4.655-5.624,7.887-10.537,7.887h-17.325 v12.154h128.065v-12.154h-17.325C294.917,355.75,290.715,352.582,289.293,347.927z"/> <path style="fill:#FFCC75;" d="M32.711,21.786c-6.012,0-10.925,4.848-10.925,10.925v316.574h145.519V32.711 c0-6.012-4.848-10.925-10.925-10.925C156.38,21.786,32.711,21.786,32.711,21.786z"/> <g> <rect x="65.422" y="63.871" style="fill:#FFFFFF;" width="58.246" height="21.786"/> <rect x="65.422" y="154.376" style="fill:#FFFFFF;" width="58.246" height="21.786"/> </g> <path style="fill:#082947;" d="M381.673,63.871H189.091v-31.16C189.091,14.675,174.416,0,156.38,0H32.776 C14.675,0,0,14.675,0,32.711V360.21c0,6.012,4.848,10.925,10.925,10.925h25.277v10.537c0,6.012,4.848,10.925,10.925,10.925 s10.796-4.978,10.796-11.055v-10.537h73.115v10.537c0,6.012,4.848,10.925,10.925,10.925s10.925-4.848,10.925-10.925v-10.537h14.352 v7.758c0,6.012,4.848,10.925,10.925,10.925h149.915c6.012,0,10.925-4.848,10.925-10.925v-33.939c0-6.012-4.848-10.925-10.925-10.925 h-20.04l-5.883-20.17h79.515c6.012,0,10.925-4.848,10.925-10.925V74.796C392.533,68.784,387.685,63.871,381.673,63.871z M167.305,349.285H21.786V32.711c0-6.012,4.848-10.925,10.925-10.925H156.38c6.012,0,10.925,4.848,10.925,10.925V349.285 L167.305,349.285z M202.279,194.715h-13.188v-21.786h34.974c6.012,0,10.925-4.848,10.925-10.925c0-6.012-4.848-10.925-10.925-10.925 h-34.974v-21.786h138.02v119.014h-138.02v-31.806h13.188c6.012,0,10.925-4.848,10.925-10.925 C213.204,199.693,208.291,194.715,202.279,194.715z M189.091,313.794h14.998l-5.883,20.17h-9.115V313.794z M317.091,355.75v12.154 h-128V355.75h17.325c4.848,0,9.115-3.168,10.537-7.887l9.891-34.133h52.622l9.891,34.133c1.422,4.655,5.624,7.887,10.537,7.887 H317.091z M370.747,292.008H189.091v-21.786h148.881c6.012,0,10.925-4.848,10.925-10.925V118.432 c0-6.012-4.848-10.925-10.925-10.925H189.091V85.721h181.657V292.008z"/> <path style="fill:#6DA8D6;" d="M327.111,129.358h-138.02v21.786h34.974c6.012,0,10.925,4.848,10.925,10.925l0,0l0,0 c0,6.012-4.848,10.925-10.925,10.925h-34.974v21.786h13.188c6.012,0,10.925,4.848,10.925,10.925l0,0l0,0 c0,6.012-4.848,10.925-10.925,10.925h-13.188v31.806h138.02V129.358z"/> <g> <path style="fill:#082947;" d="M134.529,42.085H54.562c-6.012,0-10.925,4.848-10.925,10.925v43.572 c0,6.012,4.848,10.925,10.925,10.925h80.032c6.012,0,10.925-4.848,10.925-10.925V53.01 C145.519,46.998,140.541,42.085,134.529,42.085z M123.604,85.721H65.422V63.935h58.182V85.721z"/> <path style="fill:#082947;" d="M134.529,132.525H54.562c-6.012,0-10.925,4.848-10.925,10.925v43.572 c0,6.012,4.848,10.925,10.925,10.925h80.032c6.012,0,10.925-4.848,10.925-10.925v-43.572 C145.519,137.438,140.541,132.525,134.529,132.525z M123.604,176.162H65.422v-21.786h58.182V176.162z"/> <path style="fill:#082947;" d="M94.513,228.719c-6.012,0-10.925,4.848-10.925,10.925v18.036c0,6.012,4.848,10.925,10.925,10.925 c6.012,0,10.925-4.848,10.925-10.925v-18.036C105.503,233.697,100.525,228.719,94.513,228.719z"/> </g> </g>
</svg>